<svg width="270" height="510" viewBox="0 0 270 510" fill="none" xmlns="http://www.w3.org/2000/svg">
<path fill-rule="evenodd" clip-rule="evenodd" d="M71 0C31.7878 0 0 31.7878 0 71V439C0 478.212 31.7878 510 71 510H199C238.212 510 270 478.212 270 439V111.213C258.54 119.27 244.573 124 229.5 124C190.564 124 159 92.4361 159 53.5C159 32.1014 168.534 12.9295 183.585 0H71Z" fill="#234082"/>
<path d="M270 71C270 31.7878 238.212 0 199 0H183.585C168.534 12.9295 159 32.1014 159 53.5C159 92.4361 190.564 124 229.5 124C244.573 124 258.54 119.27 270 111.213V71Z" fill="white"/>
<path d="M71 0.5H182.257C167.68 13.5023 158.5 32.4289 158.5 53.5C158.5 92.7122 190.288 124.5 229.5 124.5C244.336 124.5 258.109 119.946 269.5 112.164V439C269.5 477.936 237.936 509.5 199 509.5H71C32.0639 509.5 0.5 477.936 0.5 439V71C0.500004 32.0639 32.0639 0.5 71 0.5ZM159.5 53.5C159.5 32.3193 168.907 13.337 183.772 0.5H199C237.936 0.5 269.5 32.0639 269.5 71V110.951C258.162 118.86 244.374 123.5 229.5 123.5C190.84 123.5 159.5 92.1599 159.5 53.5Z" stroke="#234082"/>
<path fill-rule="evenodd" clip-rule="evenodd" d="M70 0H200C238.66 0 270 31.3401 270 70V440C270 478.66 238.66 510 200 510H70C31.3401 510 0 478.66 0 440V70C0 31.3401 31.3401 0 70 0ZM199 8H71C36.2061 8 8 36.206 8 71V439C8 473.794 36.2061 502 71 502H199C233.794 502 262 473.794 262 439V71C262 36.2061 233.794 8 199 8Z" fill="#234082"/>
<path d="M99.1885 138.951C92.457 145.683 81.543 145.683 74.8115 138.951L47.0487 111.189C40.3171 104.457 40.3171 93.543 47.0487 86.8115L74.8115 59.0487C81.543 52.3171 92.457 52.3171 99.1885 59.0487L126.951 86.8115C133.683 93.543 133.683 104.457 126.951 111.189L99.1885 138.951Z" fill="white"/>
<path fill-rule="evenodd" clip-rule="evenodd" d="M115.871 94.882C117.921 97.0788 117.921 100.672 115.871 102.868C113.86 105.024 110.627 105.024 108.616 102.868L108.321 102.552C106.271 100.356 106.271 96.7627 108.321 94.5661C110.332 92.4106 113.565 92.4107 115.577 94.5662L115.871 94.882ZM106.741 108.468C107.815 109.619 107.815 111.502 106.741 112.653C105.687 113.782 103.994 113.782 102.94 112.653L97.5609 106.888C93.4475 102.48 93.4474 95.2702 97.5608 90.8621L103.085 84.942C104.058 83.899 105.623 83.899 106.596 84.9419C107.588 86.0048 107.588 87.7435 106.596 88.8064L101.045 94.7549C99.0917 96.8476 99.0918 100.271 101.045 102.364L106.741 108.468ZM93.8128 110.48C97.9261 114.888 97.9263 122.099 93.813 126.506C89.7771 130.831 83.2902 130.831 79.2543 126.506C75.141 122.098 75.1408 114.888 79.2541 110.48C83.29 106.155 89.7769 106.155 93.8128 110.48ZM69.982 112.808C69.0088 113.851 67.4446 113.851 66.4714 112.808C65.4795 111.745 65.4795 110.006 66.4714 108.943L72.0219 102.995C73.9749 100.903 73.9749 97.4793 72.0219 95.3866L66.3258 89.2822C65.2519 88.1314 65.2519 86.2491 66.3257 85.0982C67.3795 83.9689 69.0731 83.9688 70.1269 85.0981L75.506 90.8624C79.6193 95.2703 79.6193 102.48 75.506 106.888L69.982 112.808ZM64.7456 103.184C62.7344 105.339 59.502 105.339 57.4907 103.184L57.1959 102.868C55.1461 100.672 55.146 97.0788 57.1957 94.8821C59.207 92.7267 62.4396 92.7266 64.4509 94.882L64.7456 95.1978C66.7954 97.3944 66.7954 100.987 64.7456 103.184ZM79.2541 87.2699C75.1408 82.862 75.141 75.6518 79.2543 71.2439C83.2902 66.9189 89.7771 66.9187 93.813 71.2437C97.9263 75.6516 97.9261 82.8618 93.8128 87.2697C89.7769 91.5947 83.29 91.5949 79.2541 87.2699Z" fill="#234082"/>
<path d="M94.7781 455.126H79.5895C62.8126 455.126 49.2123 441.297 49.2123 424.814V213.562H125.155V425.28C125.155 441.764 111.555 455.126 94.7781 455.126Z" fill="white"/>
<path d="M79.5895 135.217H94.7781C111.555 135.217 125.155 148.579 125.155 165.062V194.908H49.2123V164.596C49.2123 148.113 62.8126 135.217 79.5895 135.217Z" fill="white"/>
<path d="M230.44 445.905H188.84L192.616 442.257V455.377H185.64V437.585H230.44V445.905Z" fill="white"/>
<path d="M185 413.594C185 409.498 185.875 406.021 187.624 403.162C189.331 400.261 191.827 398.042 195.112 396.506C198.397 394.97 202.451 394.202 207.272 394.202C212.392 394.202 216.723 395.141 220.264 397.018C223.805 398.853 226.493 401.413 228.328 404.698C230.163 407.983 231.08 411.802 231.08 416.154C231.08 418.415 230.845 420.57 230.376 422.618C229.907 424.666 229.181 426.437 228.2 427.93L221.928 424.858C222.739 423.621 223.315 422.277 223.656 420.826C223.955 419.375 224.104 417.882 224.104 416.346C224.104 412.122 222.803 408.773 220.2 406.298C217.597 403.823 213.757 402.586 208.68 402.586C207.869 402.586 206.931 402.607 205.864 402.65C204.755 402.693 203.645 402.842 202.536 403.098L205.352 400.538C207.101 401.263 208.573 402.309 209.768 403.674C210.92 405.039 211.795 406.639 212.392 408.474C212.989 410.309 213.288 412.335 213.288 414.554C213.288 417.455 212.733 420.079 211.624 422.426C210.472 424.73 208.872 426.565 206.824 427.93C204.733 429.295 202.301 429.978 199.528 429.978C196.541 429.978 193.981 429.253 191.848 427.802C189.672 426.351 187.987 424.389 186.792 421.914C185.597 419.397 185 416.623 185 413.594ZM191.528 413.146C191.528 414.853 191.848 416.367 192.488 417.69C193.085 419.013 193.96 420.058 195.112 420.826C196.221 421.551 197.565 421.914 199.144 421.914C201.491 421.914 203.347 421.103 204.712 419.482C206.077 417.861 206.76 415.685 206.76 412.954C206.76 411.162 206.44 409.583 205.8 408.218C205.117 406.853 204.2 405.786 203.048 405.018C201.853 404.25 200.531 403.866 199.08 403.866C197.672 403.866 196.413 404.229 195.304 404.954C194.152 405.679 193.235 406.725 192.552 408.09C191.869 409.455 191.528 411.141 191.528 413.146Z" fill="white"/>
<path d="M231.08 369.181C231.08 373.234 230.227 376.712 228.52 379.613C226.771 382.514 224.253 384.733 220.968 386.269C217.683 387.805 213.629 388.573 208.808 388.573C203.688 388.573 199.357 387.656 195.816 385.821C192.275 383.944 189.587 381.362 187.752 378.077C185.917 374.749 185 370.93 185 366.621C185 364.36 185.235 362.205 185.704 360.157C186.173 358.066 186.899 356.296 187.88 354.845L194.152 357.917C193.341 359.154 192.787 360.498 192.488 361.949C192.147 363.357 191.976 364.85 191.976 366.429C191.976 370.653 193.277 374.002 195.88 376.477C198.483 378.952 202.323 380.189 207.4 380.189C208.211 380.189 209.171 380.168 210.28 380.125C211.347 380.082 212.435 379.933 213.544 379.677L210.728 382.237C208.979 381.469 207.528 380.424 206.376 379.101C205.181 377.736 204.285 376.136 203.688 374.301C203.091 372.424 202.792 370.397 202.792 368.221C202.792 365.277 203.368 362.653 204.52 360.349C205.629 358.045 207.229 356.21 209.32 354.845C211.368 353.48 213.779 352.797 216.552 352.797C219.496 352.797 222.056 353.522 224.232 354.973C226.408 356.424 228.093 358.386 229.288 360.861C230.483 363.336 231.08 366.109 231.08 369.181ZM224.552 369.629C224.552 367.922 224.253 366.408 223.656 365.085C223.016 363.762 222.12 362.738 220.968 362.013C219.816 361.245 218.472 360.861 216.936 360.861C214.589 360.861 212.733 361.672 211.368 363.293C210.003 364.914 209.32 367.09 209.32 369.821C209.32 371.613 209.661 373.192 210.344 374.557C210.984 375.88 211.88 376.946 213.032 377.757C214.184 378.525 215.507 378.909 217 378.909C218.365 378.909 219.624 378.546 220.776 377.821C221.928 377.096 222.845 376.05 223.528 374.685C224.211 373.277 224.552 371.592 224.552 369.629Z" fill="white"/>
<path d="M230.44 349.024H224.872L207.976 331.232C206.568 329.739 205.331 328.629 204.264 327.904C203.197 327.179 202.216 326.709 201.32 326.496C200.381 326.24 199.507 326.112 198.696 326.112C196.648 326.112 195.069 326.816 193.96 328.224C192.808 329.632 192.232 331.701 192.232 334.432C192.232 336.608 192.616 338.592 193.384 340.384C194.152 342.133 195.325 343.648 196.904 344.928L192.424 350.752C190.077 349.003 188.264 346.656 186.984 343.712C185.661 340.725 185 337.397 185 333.728C185 330.485 185.533 327.669 186.6 325.28C187.624 322.848 189.096 320.992 191.016 319.712C192.936 318.389 195.219 317.728 197.864 317.728C199.315 317.728 200.765 317.92 202.216 318.304C203.624 318.688 205.117 319.413 206.696 320.48C208.275 321.547 210.045 323.104 212.008 325.152L226.536 340.448L223.4 342.176V316H230.44V349.024Z" fill="white"/>
</svg>
